<svg width="256" height="256" viewBox="0 0 256 256" fill="none" xmlns="http://www.w3.org/2000/svg">
<g clip-path="url(#clip0_38_94)">
<path d="M128.018 13.7107L63.2472 59.4876H67.1643L72.9648 72.2566L82.7079 59.4876H91.3214L76.2617 78.9052L77.0947 80.6851L85.1346 97.8737H77.4053L71.4734 84.8453L61.4092 97.8737H52.791L66.1882 80.6851L68.1589 78.1571L60.4343 61.4758L57.1338 63.8083L54.2568 80.6851L53.482 85.2327L53.4773 85.2502C53.3274 86.2432 53.1038 87.1929 52.8084 88.0969C52.5129 89.001 52.1457 89.8589 51.7067 90.668C51.2676 91.477 50.7566 92.2379 50.1757 92.9458C49.5948 93.6538 48.9433 94.3089 48.2224 94.9096L48.2177 94.9143C47.4964 95.5109 46.7343 96.0317 45.934 96.4755C45.1337 96.9193 44.296 97.2867 43.4223 97.5772C42.5487 97.8677 41.639 98.0815 40.6977 98.2182C39.7565 98.3549 38.7833 98.415 37.78 98.3974H37.7753C37.1453 98.3839 36.5316 98.3385 35.9349 98.2601C35.3382 98.1818 34.7581 98.0703 34.1968 97.9262C33.8715 97.8427 33.5663 97.7238 33.2534 97.6179V110.732L33.2524 175.315L128.018 242.289L222.783 175.315V110.732L222.784 97.7911C222.442 97.8046 222.124 97.8737 221.775 97.8737H212.146H210.81L213.796 80.6851L214.779 75.0277L209.321 71.17L207.667 80.6851L204.843 96.9407L204.679 97.8737H198.497L190.586 80.6851L186.801 72.4637L185.375 80.6851L182.395 97.8737H175.417L178.404 80.6851L182.087 59.4876H188.274L198.002 80.6851L199.992 85.0209L200.744 80.6851L203.152 66.8109L128.018 13.7107ZM106.592 59.4876H113.42H114.33L118.885 80.6851L120.223 86.9114L123.729 80.6851L135.669 59.4876H143.795L140.111 80.6851L137.124 97.8737H130.2L132.912 82.2463L133.23 80.6851L134.464 74.6089L131.013 80.6851L121.248 97.8737H116.111L112.342 80.6851L110.799 73.6503L109.792 80.6851L109.445 83.1037L106.868 97.8737H99.9221L102.908 80.6851L106.592 59.4876ZM149.273 59.4876H156.149L152.559 80.6851L151.779 85.2978L151.792 85.2361C151.727 85.8205 151.703 86.3625 151.718 86.8637C151.733 87.3649 151.787 87.8255 151.877 88.2504C151.968 88.6753 152.095 89.0642 152.256 89.4196C152.418 89.775 152.614 90.0971 152.843 90.3898C152.845 90.3916 152.843 90.3923 152.847 90.3946C153.076 90.6827 153.332 90.9369 153.618 91.1577C153.905 91.3786 154.223 91.5656 154.577 91.7185C154.931 91.8713 155.322 91.9902 155.754 92.0744C156.187 92.1586 156.662 92.2085 157.183 92.2234H157.187H157.192C157.764 92.2459 158.304 92.2256 158.817 92.164C159.33 92.1021 159.816 91.9981 160.277 91.8511C160.738 91.7041 161.175 91.5146 161.591 91.2822C162.006 91.0498 162.4 90.7745 162.776 90.4562C163.156 90.1342 163.5 89.7811 163.81 89.3952C164.121 89.0094 164.397 88.5907 164.637 88.1353C164.878 87.68 165.084 87.1883 165.256 86.6579C165.428 86.1274 165.566 85.5578 165.669 84.9466L166.394 80.6852L169.996 59.4888H175.637H176.974L173.357 80.6852L172.581 85.2327L172.576 85.2503C172.426 86.2433 172.204 87.193 171.909 88.097C171.614 89.0011 171.247 89.859 170.808 90.6681C170.369 91.4771 169.86 92.238 169.279 92.9459C168.699 93.6538 168.047 94.309 167.326 94.9097H167.322V94.9144C166.6 95.511 165.839 96.0318 165.038 96.4756C164.237 96.9194 163.398 97.2868 162.524 97.5773C161.65 97.8678 160.74 98.0816 159.798 98.2183C158.856 98.355 157.883 98.4151 156.879 98.3975H156.875C156.245 98.384 155.632 98.3386 155.036 98.2602C154.439 98.1819 153.859 98.0705 153.299 97.9263C152.738 97.7823 152.196 97.6056 151.672 97.3947C151.149 97.1837 150.645 96.9392 150.161 96.6606L150.152 96.6559L150.148 96.6512C149.667 96.3673 149.215 96.0521 148.793 95.7077C148.372 95.3632 147.981 94.9894 147.621 94.5874C147.261 94.1853 146.931 93.7551 146.635 93.2984C146.34 92.8416 146.077 92.3585 145.848 91.85C145.618 91.3355 145.427 90.8042 145.275 90.2574C145.123 89.7105 145.01 89.1471 144.935 88.5705C144.859 87.9939 144.823 87.4036 144.824 86.7999C144.825 86.1961 144.863 85.5796 144.938 84.9513L144.942 84.9245L145.664 80.6853L149.273 59.4876ZM49.209 69.4087L33.4863 80.5211L33.4584 80.6851L33.2536 81.8962V89.5859C33.3972 89.8709 33.5493 90.1474 33.7387 90.3898C33.7401 90.3916 33.7412 90.3923 33.7435 90.3946C33.9725 90.6827 34.2283 90.9369 34.5148 91.1577C34.8012 91.3786 35.1191 91.5656 35.4734 91.7185C35.8277 91.8713 36.2181 91.9902 36.6507 92.0744C37.0833 92.1586 37.5579 92.2085 38.0793 92.2234H38.084H38.0921C38.6641 92.2459 39.2057 92.2256 39.7185 92.164C40.2313 92.1021 40.7158 91.9981 41.1762 91.8511C41.6366 91.7041 42.0725 91.5146 42.4873 91.2822C42.9022 91.0498 43.2966 90.7745 43.6728 90.4562C44.0527 90.1342 44.3967 89.7811 44.707 89.3952C45.0172 89.0094 45.2933 88.5907 45.5341 88.1353C45.775 87.68 45.9812 87.1883 46.153 86.6579C46.3248 86.1274 46.4629 85.5578 46.566 84.9466L47.2908 80.6852L49.209 69.4087ZM220.961 79.3973L220.738 80.6851L218.819 91.7358L222.081 91.7534C222.327 91.7532 222.545 91.7088 222.783 91.6975V80.6852L220.961 79.3973ZM128.017 123.02L145.636 135.471L128.017 144.266L110.398 135.471L128.017 123.02ZM109.339 137.459L126.891 146.222V167.235L109.339 154.832V137.459ZM146.695 137.459V154.832L129.143 167.235V146.222L146.695 137.459Z" fill="white"/>
<path d="M6.27864 60.615L0 96.75H21.2941L21.9886 92.8539H5.36076L10.9693 60.615H6.27864Z" fill="white"/>
<path d="M31.1222 60.615L26.9527 85.085C26.8824 85.6724 26.8468 86.2446 26.8457 86.801C26.8447 87.3573 26.8775 87.8985 26.9458 88.4239C27.014 88.9492 27.1177 89.4582 27.2552 89.9525C27.3928 90.4468 27.5649 90.926 27.7718 91.3892C27.9786 91.8484 28.2131 92.2826 28.4767 92.691C28.7404 93.0995 29.0334 93.4826 29.3539 93.8404C29.6745 94.1982 30.0235 94.5303 30.4009 94.8374C30.7784 95.1446 31.1835 95.4267 31.6178 95.6832C32.0563 95.9355 32.5138 96.1575 32.9906 96.3498C33.0748 96.3838 33.1681 96.4038 33.2535 96.4359C33.6515 96.5855 34.0545 96.7283 34.4785 96.8372C34.9935 96.9696 35.5272 97.072 36.0804 97.1444C36.6337 97.2167 37.2061 97.2588 37.7976 97.2712C38.7448 97.2878 39.6582 97.2333 40.5361 97.1072C41.414 96.981 42.2566 96.7827 43.0652 96.5138C43.8739 96.245 44.6479 95.9051 45.3873 95.4936C46.1267 95.082 46.8322 94.5995 47.5023 94.0452C48.1724 93.4868 48.7759 92.8804 49.3136 92.2269C49.8513 91.5733 50.3229 90.8722 50.7283 90.1235C51.1336 89.3749 51.4732 88.579 51.7462 87.7352C52.0192 86.8913 52.2256 85.9996 52.3663 85.0606L53.112 80.6852L55.8342 64.7263L56.5357 60.615H51.8451L50.5061 68.4921L48.4318 80.6852L47.6756 85.1351C47.5639 85.7969 47.4119 86.422 47.2196 87.0104C47.0272 87.5988 46.7946 88.1509 46.5216 88.6658C46.2486 89.1808 45.9352 89.6587 45.5816 90.1003C45.2279 90.5418 44.8339 90.9467 44.3996 91.3148C43.9694 91.6788 43.5148 91.9938 43.035 92.2606C42.5552 92.5274 42.0497 92.746 41.5203 92.9156C40.9908 93.0852 40.4369 93.2062 39.8579 93.2785C39.2788 93.3509 38.6752 93.3743 38.0465 93.3495C37.4674 93.3328 36.9247 93.2739 36.419 93.1715C35.9133 93.0691 35.4447 92.9235 35.0125 92.7353C34.5802 92.5471 34.1847 92.3159 33.8259 92.0419C33.6133 91.8796 33.4402 91.6712 33.2535 91.4788C33.1249 91.3464 32.9755 91.2382 32.8591 91.0914C32.5737 90.7274 32.3331 90.3302 32.1367 89.899C31.9402 89.4678 31.7882 89.0026 31.6806 88.5041C31.5731 88.0057 31.5096 87.4737 31.491 86.908C31.4723 86.3424 31.4987 85.7435 31.5689 85.1106L35.7128 60.615L31.1222 60.615Z" fill="white"/>
<path d="M61.6522 60.615L61.3683 60.8151L69.4665 78.3096L67.6156 80.6852L55.0967 96.75H60.8541L71.7245 82.678L78.1276 96.75H83.3639L75.8521 80.6852L74.9505 78.7564L89.0225 60.615H83.265L72.7169 74.438L66.4382 60.615L61.6522 60.615Z" fill="white"/>
<path d="M107.537 60.615L104.049 80.6852L101.258 96.75H105.923L108.331 82.9258L108.653 80.6852L110.565 67.3404L113.493 80.6852L117.017 96.75H120.591L129.715 80.6852L136.971 67.9116L134.378 80.6852L134.018 82.4547L131.536 96.75H136.178L138.968 80.6852L142.456 60.615H136.327L125.022 80.6852L119.748 90.0491L117.734 80.6852L113.419 60.615H107.537Z" fill="white"/>
<path d="M150.224 60.615L146.804 80.6852L146.055 85.085C145.984 85.6724 145.949 86.2446 145.948 86.801C145.947 87.3573 145.981 87.8985 146.049 88.4239C146.117 88.9492 146.22 89.4582 146.357 89.9525C146.495 90.4468 146.667 90.926 146.874 91.3892C147.081 91.8484 147.316 92.2826 147.58 92.691C147.844 93.0995 148.135 93.4826 148.456 93.8404C148.777 94.1982 149.126 94.5303 149.503 94.8374C149.881 95.1446 150.287 95.4267 150.721 95.6832C151.16 95.9355 151.617 96.1575 152.094 96.3498C152.571 96.5421 153.067 96.7049 153.582 96.8372C154.097 96.9696 154.631 97.072 155.184 97.1444C155.737 97.2167 156.309 97.2588 156.901 97.2712C157.848 97.2878 158.76 97.2333 159.638 97.1072C160.516 96.981 161.36 96.7827 162.169 96.5139C162.977 96.245 163.751 95.9052 164.491 95.4936C165.23 95.082 165.934 94.5995 166.604 94.0452C167.274 93.4868 167.879 92.8804 168.417 92.2269C168.955 91.5733 169.426 90.8722 169.832 90.1235C170.237 89.3748 170.575 88.579 170.848 87.7352C171.121 86.8913 171.329 85.9996 171.47 85.0606L172.215 80.6852L175.639 60.615H170.948L167.535 80.6852L166.779 85.1351C166.667 85.7969 166.515 86.422 166.323 87.0104C166.131 87.5988 165.898 88.1509 165.625 88.6658C165.352 89.1808 165.039 89.6587 164.685 90.1003C164.331 90.5418 163.937 90.9467 163.503 91.3148C163.073 91.6788 162.617 91.9938 162.137 92.2606C161.657 92.5274 161.153 92.746 160.624 92.9156C160.094 93.0852 159.54 93.2062 158.961 93.2786C158.382 93.3509 157.777 93.3743 157.149 93.3495C156.57 93.3328 156.028 93.2739 155.522 93.1715C155.017 93.0691 154.547 92.9235 154.115 92.7353C153.682 92.5471 153.287 92.3159 152.928 92.0419C152.569 91.7679 152.248 91.4513 151.962 91.0914C151.677 90.7274 151.435 90.3302 151.239 89.899C151.042 89.4678 150.89 89.0026 150.783 88.5041C150.675 88.0057 150.613 87.4737 150.594 86.908C150.576 86.3424 150.601 85.7435 150.671 85.1106L151.42 80.6852L154.816 60.615L150.224 60.615Z" fill="white"/>
<path d="M183.034 60.615L179.547 80.6852L176.756 96.75H181.447L184.233 80.6852L186.311 68.705L191.824 80.6852L199.216 96.75H203.733L206.524 80.6852L208.303 70.4512L210.012 60.615H205.371L204.17 67.5311L201.887 80.6852L200.481 88.7833L196.764 80.6852L187.552 60.615H183.034Z" fill="white"/>
<path d="M218.425 60.615L215.795 75.7468L214.937 80.6852L212.146 96.75H221.775C222.126 96.75 222.44 96.6835 222.783 96.6686C223.68 96.6295 224.582 96.5983 225.423 96.4568C226.586 96.2614 227.695 95.9682 228.749 95.5773C229.804 95.1865 230.805 94.6978 231.752 94.1115C232.699 93.5252 233.593 92.8411 234.432 92.0594C235.272 91.2735 236.03 90.4217 236.706 89.5035C237.381 88.5852 237.974 87.6003 238.484 86.5497C238.995 85.4991 239.423 84.3822 239.77 83.1992C240.116 82.0162 240.381 80.7674 240.563 79.4521L240.811 77.6396C240.906 76.8371 240.961 76.0551 240.974 75.2919C240.988 74.5288 240.961 73.7844 240.891 73.0606C240.823 72.3367 240.714 71.6325 240.565 70.9479C240.415 70.2634 240.224 69.5992 239.992 68.9539C239.761 68.3045 239.491 67.6903 239.184 67.1112C238.877 66.5321 238.532 65.9878 238.149 65.479C237.767 64.9702 237.346 64.497 236.888 64.0585C236.43 63.6201 235.934 63.2168 235.4 62.8486C234.871 62.4805 234.316 62.158 233.735 61.8819C233.153 61.6058 232.547 61.3761 231.914 61.192C231.281 61.008 230.622 60.8699 229.937 60.7779C229.253 60.6858 228.542 60.6394 227.806 60.6394L218.425 60.615ZM222.396 64.5355L227.93 64.5611C228.543 64.5775 229.124 64.6368 229.674 64.7402C230.224 64.8436 230.743 64.9909 231.231 65.1812C231.719 65.3714 232.176 65.6055 232.602 65.8827C233.028 66.1598 233.424 66.4796 233.788 66.8436C234.152 67.2035 234.478 67.5989 234.766 68.0291C235.055 68.4592 235.306 68.9246 235.519 69.4251C235.732 69.9256 235.907 70.4609 236.045 71.0317C236.182 71.6025 236.282 72.2089 236.344 72.85C236.435 73.9172 236.43 75.0978 236.33 76.3924C236.231 77.6871 236.037 79.0956 235.747 80.6177C235.566 81.5691 235.33 82.4702 235.04 83.3202C234.751 84.1702 234.408 84.9692 234.011 85.7179C233.613 86.4666 233.162 87.1646 232.658 87.8119C232.153 88.4593 231.595 89.0563 230.982 89.6023C230.374 90.1483 229.732 90.6261 229.057 91.0356C228.382 91.4451 227.673 91.7863 226.93 92.0593C226.188 92.3323 225.412 92.5371 224.602 92.6736C224.02 92.7718 223.399 92.7938 222.782 92.8213C222.541 92.8321 222.318 92.8783 222.072 92.8783L217.482 92.8539L219.593 80.6852L219.942 78.6773L222.396 64.5355Z" fill="white"/>
<path d="M251.359 60.615L245.08 96.75H249.721L256 60.615H251.359Z" fill="white"/>
</g>
<defs>
<clipPath id="clip0_38_94">
<rect width="256" height="256" fill="white"/>
</clipPath>
</defs>
</svg>
