<svg width="256" height="256" viewBox="0 0 256 256" fill="none" xmlns="http://www.w3.org/2000/svg">
<path fill-rule="evenodd" clip-rule="evenodd" d="M78 28V48H68V58H58V88H48V118H58V128H78V138H138V128H128V118H118V108H128V98H118V78H128H138V68H148V28H138V48H128V58H118V68H88V28H78ZM148 68V78H138V88H148V98H158V108H168V98H228V108H238V78H228V68H148ZM228 108H168V118H158V128H148V148H158V158H228V148H238V118H228V138H218V118H228V108ZM158 158H148V168H138V178H168V208H208V198H218V178H238V168H158V158ZM148 128V118H138V128H148ZM148 118H158V108H148V118ZM148 108V98H138V108H148ZM78 78H98V98H88V108H78V78ZM178 118H188V138H178V118ZM38 138V148H68V138H38ZM78 148V178H68V198H108V188H118V178H128V148H118V158H108V168H98V178H88V168H98V148H78ZM28 158V168H18V188H38V178H58V168H68V158H28ZM138 188V208H158V188H138ZM138 208H118V228H148V218H138V208ZM228 188V208H238V188H228ZM58 208V218H48V228H78V208H58ZM158 218V228H178V218H158ZM198 218V228H218V218H198Z" fill="#E9F2FF"/>
</svg>
